<?xml version="1.0" encoding="UTF-8" standalone="no"?>
<svg
   xmlns:dc="http://purl.org/dc/elements/1.1/"
   xmlns:cc="http://creativecommons.org/ns#"
   xmlns:rdf="http://www.w3.org/1999/02/22-rdf-syntax-ns#"
   xmlns:svg="http://www.w3.org/2000/svg"
   xmlns="http://www.w3.org/2000/svg"
   xmlns:xlink="http://www.w3.org/1999/xlink"
   xmlns:sodipodi="http://sodipodi.sourceforge.net/DTD/sodipodi-0.dtd"
   xmlns:inkscape="http://www.inkscape.org/namespaces/inkscape"
   id="svg4306"
   width="22"
   height="22"
   version="1.1"
   style="enable-background:new"
   sodipodi:docname="close.svg"
   inkscape:version="1.0 (4035a4fb49, 2020-05-01)">
  <metadata
     id="metadata31">
    <rdf:RDF>
      <cc:Work
         rdf:about="">
        <dc:format>image/svg+xml</dc:format>
        <dc:type
           rdf:resource="http://purl.org/dc/dcmitype/StillImage" />
        <dc:title />
      </cc:Work>
    </rdf:RDF>
  </metadata>
  <defs
     id="defs29">
    <linearGradient
       inkscape:collect="always"
       id="linearGradient1076">
      <stop
         style="stop-color:#ffa59b;stop-opacity:1"
         offset="0"
         id="stop1070" />
      <stop
         id="stop1072"
         offset="0.54545456"
         style="stop-color:#e65046;stop-opacity:1" />
      <stop
         style="stop-color:#d23c32;stop-opacity:1"
         offset="1"
         id="stop1074" />
    </linearGradient>
    <filter
       color-interpolation-filters="sRGB"
       height="1.048"
       width="1.048"
       y="-.024"
       x="-.024"
       id="filter11290">
      <feGaussianBlur
         id="feGaussianBlur880"
         stdDeviation="0.15875313" />
    </filter>
    <linearGradient
       gradientUnits="userSpaceOnUse"
       gradientTransform="translate(-0.0080452,-5.0139e-5)"
       y2=".93425"
       y1="14.069"
       x2="16.101"
       x1="2.9667"
       id="linearGradient1005">
      <stop
         id="stop883"
         offset="0"
         stop-color="#ff7d50" />
      <stop
         id="stop885"
         offset=".51596"
         stop-color="#fa4b5a" />
      <stop
         id="stop887"
         offset="1"
         stop-color="#ff509b" />
    </linearGradient>
    <clipPath
       id="aw">
      <path
         id="path890"
         d="m481 318h22v22h-22z" />
    </clipPath>
    <clipPath
       id="av">
      <path
         id="path893"
         d="m507 318h22v22h-22z" />
    </clipPath>
    <clipPath
       id="au">
      <path
         id="path896"
         d="m530 318h22v22h-22z" />
    </clipPath>
    <clipPath
       id="at">
      <path
         id="path899"
         d="m672 1064c0-1.105 4.925-2 11-2s11 0.895 11 2-4.925 2-11 2-11-0.895-11-2" />
    </clipPath>
    <clipPath
       id="as">
      <path
         id="path902"
         d="m660 1057h51v65.001h-51z" />
    </clipPath>
    <clipPath
       id="ar">
      <path
         id="path905"
         d="m659 517h53v18h-53z" />
    </clipPath>
    <clipPath
       id="aq">
      <path
         id="path908"
         d="m659 500h53v18h-53z" />
    </clipPath>
    <clipPath
       id="ap">
      <path
         id="path911"
         d="m648 112h73v60h-73z" />
    </clipPath>
    <clipPath
       id="ao">
      <path
         id="path914"
         d="m826 1056h59v60h-59z" />
    </clipPath>
    <clipPath
       id="an">
      <path
         id="path917"
         d="m805 276h100v100h-100z" />
    </clipPath>
    <clipPath
       id="am">
      <path
         id="path920"
         d="m145 1063.8h74.152v45.21h-74.152z" />
    </clipPath>
    <clipPath
       id="al">
      <path
         id="path923"
         d="m151 667h57v57h-57z" />
    </clipPath>
    <clipPath
       id="ak">
      <path
         id="path926"
         d="m154 697h51v51h-51z" />
    </clipPath>
    <clipPath
       id="aj">
      <path
         id="path929"
         d="m500.04 864.45h36.012v67.52h-36.012z" />
    </clipPath>
    <clipPath
       id="ai">
      <path
         id="path932"
         d="m836 870.54h47v55.539h-47z" />
    </clipPath>
    <clipPath
       id="ah">
      <path
         id="path935"
         d="m318.03 702.35h62.848v37.991h-62.848z" />
    </clipPath>
    <clipPath
       id="ag">
      <path
         id="path938"
         d="m485.03 133.35h62.847v37.991h-62.847z" />
    </clipPath>
    <clipPath
       id="af">
      <path
         id="path941"
         d="m493.37 677.93h45.643v68.067h-45.643z" />
    </clipPath>
    <clipPath
       id="ae">
      <path
         id="path944"
         d="m144.34 1018.2h71.467v78h-71.467z" />
    </clipPath>
    <clipPath
       id="ad">
      <path
         id="path947"
         d="m293.21 1068.6 66.323-38.292 36.047 62.435-66.323 38.292z" />
    </clipPath>
    <clipPath
       id="ac">
      <path
         id="path950"
         d="m488.86 1054.5h10v10.706h-10z" />
    </clipPath>
    <clipPath
       id="ab">
      <path
         id="path953"
         d="m508 1066.8h10.001v10.705h-10.001z" />
    </clipPath>
    <clipPath
       id="aa">
      <path
         id="path956"
         d="m525 1045.8h10v10.706h-10z" />
    </clipPath>
    <clipPath
       id="z">
      <path
         id="path959"
         d="m836 1043.7h25.5v31.5h-25.5z" />
    </clipPath>
    <clipPath
       id="y">
      <path
         id="path962"
         d="m838 1062.2h24v24h-24z" />
    </clipPath>
    <clipPath
       id="x">
      <path
         id="path965"
         d="m134 489.24h7v6h-7z" />
    </clipPath>
    <clipPath
       id="w">
      <path
         id="path968"
         d="m216 489.24h7v6h-7z" />
    </clipPath>
    <clipPath
       id="v">
      <path
         id="path971"
         d="m838 477.24h22v22h-22z" />
    </clipPath>
    <clipPath
       id="u">
      <path
         id="path974"
         d="m704 1061.2h25v25h-25z" />
    </clipPath>
    <clipPath
       id="t">
      <path
         id="path977"
         d="m663.04 1078.6-1.808-3.514-21.07-47.453c13.336-18.439 48.336-26.938 73.836-3.439 0.842 0 6.476 6.246 6 7l-18.386 25.895c-0.483 0.765-1.453 0.946-2.177 0.431l-15.505-11.011c-0.359-0.255-0.847-0.153-1.07 0.238l-18.272 31.869c-0.218 0.384-0.502 0.578-0.782 0.578-0.282 0-0.561-0.197-0.766-0.594" />
    </clipPath>
    <clipPath
       id="s">
      <path
         id="path980"
         d="m127 820.24h100v100h-100z" />
    </clipPath>
    <clipPath
       id="r">
      <path
         id="path983"
         d="m809 680.24c0-22.092 17.908-40 40-40s40 17.908 40 40c0 22.091-17.908 40-40 40s-40-17.909-40-40" />
    </clipPath>
    <clipPath
       id="q">
      <path
         id="path986"
         d="m658 469.24h44v45h-44z" />
    </clipPath>
    <clipPath
       id="p">
      <path
         id="path989"
         d="m651 271.24h58v58h-58z" />
    </clipPath>
    <clipPath
       id="o">
      <path
         id="path992"
         d="m662 307.24h38v8h-38z" />
    </clipPath>
    <clipPath
       id="n">
      <path
         id="path995"
         d="m858.98 137.24c0.013-0.101 0.021-0.203 0.021-0.307v-6.693h15.75c1.237 0 2.25-1.013 2.25-2.25v-11.25l-27-4.5-27 4.5v-2.25l27-4.5 27 4.5v-27c0-1.237-1.013-2.25-2.25-2.25h-49.5c-1.237 0-2.25 1.013-2.25 2.25v-4.25h54v54zm-35.979 0v-9.25c0 1.237 1.013 2.25 2.25 2.25h15.75v6.693c0 0.104 7e-3 0.207 0.02 0.307zm22.5-7h9v4.5h-9zm1.125-9c-0.62 0-1.125-0.506-1.125-1.125v-2.25c0-0.619 0.505-1.125 1.125-1.125h6.75c0.619 0 1.125 0.506 1.125 1.125v2.25c0 0.619-0.506 1.125-1.125 1.125z" />
    </clipPath>
    <clipPath
       id="m">
      <path
         id="path998"
         d="m531.27 136.24c6.325-2.29 10.727-8.277 10.727-15.484 0-11.316-10.2-20.563-25.65-34.575l-4.35-3.941-4.35 3.941c-15.45 14.012-25.65 23.259-25.65 34.575v-39.516h60v55zm-26.983 0c2.995-1.052 5.686-2.883 7.71-5.25 2.024 2.367 4.715 4.198 7.71 5.25zm-22.29 0v-15.484c0 7.207 4.402 13.194 10.727 15.484z" />
    </clipPath>
    <clipPath
       id="l">
      <path
         id="path1001"
         d="m648 79.241h64v64h-64z" />
    </clipPath>
    <clipPath
       id="k">
      <path
         id="path1004"
         d="m500 691.74c0-3.037 2.463-5.5 5.5-5.5s5.5 2.463 5.5 5.5-2.463 5.5-5.5 5.5-5.5-2.463-5.5-5.5" />
    </clipPath>
    <clipPath
       id="j">
      <path
         id="path1007"
         d="m500 669.74c0-3.037 2.463-5.5 5.5-5.5s5.5 2.463 5.5 5.5c0 3.038-2.463 5.5-5.5 5.5s-5.5-2.462-5.5-5.5" />
    </clipPath>
    <clipPath
       id="i">
      <path
         id="path1010"
         d="m494 680.74c0-3.037 2.462-5.5 5.5-5.5s5.5 2.463 5.5 5.5c0 3.038-2.462 5.5-5.5 5.5s-5.5-2.462-5.5-5.5" />
    </clipPath>
    <clipPath
       id="h">
      <path
         id="path1013"
         d="m513 691.74c0-3.037 2.463-5.5 5.5-5.5s5.5 2.463 5.5 5.5-2.463 5.5-5.5 5.5-5.5-2.463-5.5-5.5" />
    </clipPath>
    <clipPath
       id="g">
      <path
         id="path1016"
         d="m513 669.74c0-3.037 2.463-5.5 5.5-5.5s5.5 2.463 5.5 5.5c0 3.038-2.463 5.5-5.5 5.5s-5.5-2.462-5.5-5.5" />
    </clipPath>
    <clipPath
       id="f-0">
      <path
         id="path1019"
         d="m507 680.74c0-3.037 2.463-5.5 5.5-5.5s5.5 2.463 5.5 5.5c0 3.038-2.463 5.5-5.5 5.5s-5.5-2.462-5.5-5.5" />
    </clipPath>
    <clipPath
       id="e-7">
      <path
         id="path1022"
         d="m520 680.74c0-3.037 2.463-5.5 5.5-5.5s5.5 2.463 5.5 5.5c0 3.038-2.463 5.5-5.5 5.5s-5.5-2.462-5.5-5.5" />
    </clipPath>
    <clipPath
       id="d-8">
      <path
         id="path1025"
         d="m321 322.24c-4.97 0-9-4.029-9-9 0-4.97 4.03-9 9-9h45c4.971 0 9 4.03 9 9 0 4.971-4.029 9-9 9z" />
    </clipPath>
    <clipPath
       id="c">
      <path
         id="path1028"
         d="m322 297.24c-4.971 0-9-4.029-9-9 0-4.97 4.029-9 9-9h45c4.971 0 9 4.03 9 9 0 4.971-4.029 9-9 9z" />
    </clipPath>
    <clipPath
       id="b-6">
      <path
         id="path1031"
         d="m155 83.24h44v53h-44z" />
    </clipPath>
    <filter
       color-interpolation-filters="sRGB"
       height="1.1898"
       width="1.3198"
       y="-.094877"
       x="-.15989"
       id="filter2174">
      <feGaussianBlur
         id="feGaussianBlur1034"
         stdDeviation="0.25608494" />
    </filter>
    <linearGradient
       inkscape:collect="always"
       xlink:href="#linearGradient1076"
       id="linearGradient898"
       gradientUnits="userSpaceOnUse"
       gradientTransform="matrix(1.2222223,0,0,1.2222223,33,-2e-8)"
       x1="-17"
       y1="1.6363636e-08"
       x2="-17"
       y2="17.999998" />
    <linearGradient
       id="linearGradient881"
       inkscape:collect="always">
      <stop
         id="stop875"
         offset="0"
         style="stop-color:#ffffff;stop-opacity:1" />
      <stop
         style="stop-color:#969696;stop-opacity:1"
         offset="0.54545456"
         id="stop877" />
      <stop
         id="stop879"
         offset="1"
         style="stop-color:#ffffff;stop-opacity:1" />
    </linearGradient>
    <linearGradient
       inkscape:collect="always"
       xlink:href="#linearGradient881"
       id="linearGradient1057"
       gradientUnits="userSpaceOnUse"
       gradientTransform="matrix(1.2222223,0,0,1.2222223,61,0)"
       x1="-17"
       y1="1.6363636e-08"
       x2="-17"
       y2="17.999998" />
    <linearGradient
       inkscape:collect="always"
       xlink:href="#linearGradient881"
       id="linearGradient1147"
       gradientUnits="userSpaceOnUse"
       gradientTransform="matrix(1.2222223,0,0,1.2222223,90,0)"
       x1="-17"
       y1="1.6363636e-08"
       x2="-17"
       y2="17.999998" />
    <linearGradient
       y2="17.999998"
       x2="-17"
       y1="1.6363636e-08"
       x1="-17"
       gradientTransform="matrix(1.2222223,0,0,1.2222223,33,27)"
       gradientUnits="userSpaceOnUse"
       id="linearGradient893"
       xlink:href="#linearGradient901"
       inkscape:collect="always" />
    <linearGradient
       id="linearGradient901"
       inkscape:collect="always">
      <stop
         id="stop895"
         offset="0"
         style="stop-color:#ffffff;stop-opacity:1" />
      <stop
         style="stop-color:#d23c32;stop-opacity:1"
         offset="0.54545456"
         id="stop897" />
      <stop
         id="stop899"
         offset="1"
         style="stop-color:#e17d69;stop-opacity:1" />
    </linearGradient>
    <linearGradient
       y2="17.999998"
       x2="-17"
       y1="1.6363636e-08"
       x1="-17"
       gradientTransform="matrix(1.2222223,0,0,1.2222223,33,57)"
       gradientUnits="userSpaceOnUse"
       id="linearGradient913"
       xlink:href="#linearGradient921"
       inkscape:collect="always" />
    <linearGradient
       inkscape:collect="always"
       id="linearGradient921">
      <stop
         style="stop-color:#ffffff;stop-opacity:1"
         offset="0"
         id="stop915" />
      <stop
         id="stop917"
         offset="0.54545456"
         style="stop-color:#b43c32;stop-opacity:1" />
      <stop
         style="stop-color:#d23c32;stop-opacity:1"
         offset="1"
         id="stop919" />
    </linearGradient>
  </defs>
  <sodipodi:namedview
     pagecolor="#c8c8c8"
     bordercolor="#666666"
     borderopacity="1"
     objecttolerance="10"
     gridtolerance="10"
     guidetolerance="10"
     inkscape:pageopacity="0"
     inkscape:pageshadow="2"
     inkscape:window-width="1920"
     inkscape:window-height="1005"
     id="namedview27"
     showgrid="true"
     inkscape:zoom="11.313709"
     inkscape:cx="17.705244"
     inkscape:cy="67.150413"
     inkscape:window-x="0"
     inkscape:window-y="0"
     inkscape:window-maximized="1"
     inkscape:current-layer="svg4306"
     inkscape:snap-bbox="true"
     inkscape:bbox-nodes="true"
     inkscape:document-rotation="0">
    <inkscape:grid
       type="xygrid"
       id="grid878" />
  </sodipodi:namedview>
  <g
     id="hover-center">
    <rect
       style="opacity:0.00100002;fill:#000000;fill-opacity:1;fill-rule:nonzero;stroke:none;stroke-width:2;stroke-linecap:round;stroke-linejoin:round;stroke-miterlimit:4;stroke-dasharray:none;stroke-opacity:1"
       y="27"
       x="0"
       height="22"
       width="22"
       id="rect883" />
    <rect
       y="27"
       x="0"
       height="22"
       width="22"
       id="rect885"
       style="opacity:0.8;fill:url(#linearGradient893);fill-opacity:1;stroke:none;stroke-width:1.04762;stroke-miterlimit:4;stroke-dasharray:none;stroke-opacity:1"
       rx="0"
       ry="0" />
    <path
       id="path904"
       style="fill:#787878;fill-opacity:1"
       d="M 21,27 V 48 H 1 0 v 1 h 1 20 1 V 27 Z" />
    <g
       transform="translate(28.717514,27)"
       id="g1052">
      <rect
         transform="matrix(0.5144956,0.85749302,-0.5144956,0.85749302,0,0)"
         style="fill:#ffffff;stroke-width:0.723775"
         id="rect1048"
         width="10.106982"
         height="1.5549203"
         x="-15.857778"
         y="22.854919" />
      <rect
         y="-11.581746"
         x="18.57889"
         height="1.5549203"
         width="10.106982"
         id="rect1050"
         style="fill:#ffffff;stroke-width:0.723775"
         transform="matrix(-0.5144956,0.85749302,0.5144956,0.85749302,0,0)" />
    </g>
  </g>
  <g
     id="inactive-center">
    <rect
       id="rect1047"
       width="22"
       height="22"
       x="28"
       y="0"
       style="opacity:0.00100002;fill:#000000;fill-opacity:1;fill-rule:nonzero;stroke:none;stroke-width:2;stroke-linecap:round;stroke-linejoin:round;stroke-miterlimit:4;stroke-dasharray:none;stroke-opacity:1" />
    <rect
       ry="0"
       rx="0"
       style="opacity:0.6;fill:url(#linearGradient1057);fill-opacity:1;stroke:none;stroke-width:1.04762;stroke-miterlimit:4;stroke-dasharray:none;stroke-opacity:1"
       id="rect1049"
       width="22"
       height="22"
       x="28"
       y="0" />
    <path
       id="path1053"
       style="fill:#787878;fill-opacity:1"
       d="M 49 0 L 49 21 L 29 21 L 28 21 L 28 22 L 29 22 L 49 22 L 50 22 L 50 0 L 49 0 z " />
    <g
       transform="translate(56.717514)"
       id="g1073">
      <rect
         transform="matrix(0.5144956,0.85749302,-0.5144956,0.85749302,0,0)"
         style="fill:#ffffff;stroke-width:0.723775"
         id="rect1069"
         width="10.106982"
         height="1.5549203"
         x="-15.857778"
         y="22.854919" />
      <rect
         y="-11.581746"
         x="18.57889"
         height="1.5549203"
         width="10.106982"
         id="rect1071"
         style="fill:#ffffff;stroke-width:0.723775"
         transform="matrix(-0.5144956,0.85749302,0.5144956,0.85749302,0,0)" />
    </g>
  </g>
  <g
     id="pressed-center">
    <rect
       id="rect903"
       width="22"
       height="22"
       x="0"
       y="57"
       style="opacity:0.00100002;fill:#000000;fill-opacity:1;fill-rule:nonzero;stroke:none;stroke-width:2;stroke-linecap:round;stroke-linejoin:round;stroke-miterlimit:4;stroke-dasharray:none;stroke-opacity:1" />
    <rect
       ry="0"
       rx="0"
       style="opacity:0.8;fill:url(#linearGradient913);fill-opacity:1;stroke:none;stroke-width:1.04762;stroke-miterlimit:4;stroke-dasharray:none;stroke-opacity:1"
       id="rect905"
       width="22"
       height="22"
       x="0"
       y="57" />
    <path
       id="path941-5"
       style="fill:#787878;fill-opacity:1"
       d="M 21,57 V 78 H 1 0 v 1 h 1 20 1 V 57 Z" />
    <g
       transform="translate(28.717514,57)"
       id="g1088">
      <rect
         y="22.854919"
         x="-15.857778"
         height="1.5549203"
         width="10.106982"
         id="rect1084"
         style="fill:#ffffff;stroke-width:0.723775"
         transform="matrix(0.5144956,0.85749302,-0.5144956,0.85749302,0,0)" />
      <rect
         transform="matrix(-0.5144956,0.85749302,0.5144956,0.85749302,0,0)"
         style="fill:#ffffff;stroke-width:0.723775"
         id="rect1086"
         width="10.106982"
         height="1.5549203"
         x="18.57889"
         y="-11.581746" />
    </g>
  </g>
  <g
     id="deactivated-center">
    <rect
       style="opacity:0.00100002;fill:#000000;fill-opacity:1;fill-rule:nonzero;stroke:none;stroke-width:2;stroke-linecap:round;stroke-linejoin:round;stroke-miterlimit:4;stroke-dasharray:none;stroke-opacity:1"
       y="0"
       x="57"
       height="22"
       width="22"
       id="rect1141" />
    <rect
       y="0"
       x="57"
       height="22"
       width="22"
       id="rect1143"
       style="opacity:0.6;fill:url(#linearGradient1147);fill-opacity:1;stroke:none;stroke-width:1.04762;stroke-miterlimit:4;stroke-dasharray:none;stroke-opacity:1"
       rx="0"
       ry="0" />
    <path
       id="path1145"
       style="fill:#787878;fill-opacity:1"
       d="M 78 0 L 78 21 L 58 21 L 57 21 L 57 22 L 58 22 L 78 22 L 79 22 L 79 0 L 78 0 z " />
    <g
       transform="translate(85.717514)"
       id="g1102">
      <rect
         y="22.854919"
         x="-15.857778"
         height="1.5549203"
         width="10.106982"
         id="rect1098"
         style="fill:#ffffff;stroke-width:0.723775"
         transform="matrix(0.5144956,0.85749302,-0.5144956,0.85749302,0,0)" />
      <rect
         transform="matrix(-0.5144956,0.85749302,0.5144956,0.85749302,0,0)"
         style="fill:#ffffff;stroke-width:0.723775"
         id="rect1100"
         width="10.106982"
         height="1.5549203"
         x="18.57889"
         y="-11.581746" />
    </g>
  </g>
  <g
     id="active-center">
    <path
       id="rect890"
       style="opacity:0.00100002;fill:#000000;fill-opacity:1;fill-rule:nonzero;stroke:none;stroke-width:2;stroke-linecap:round;stroke-linejoin:round;stroke-miterlimit:4;stroke-dasharray:none;stroke-opacity:1"
       d="M 0,0 H 22 V 22 H 0 Z" />
    <path
       id="rect892"
       style="opacity:1;fill:url(#linearGradient898);fill-opacity:1;stroke:none;stroke-width:1.04762;stroke-miterlimit:4;stroke-dasharray:none;stroke-opacity:1"
       d="M 0,0 H 22 V 22 H 0 Z" />
    <path
       id="rect882"
       style="fill:#787878;fill-opacity:1"
       d="M 21 0 L 21 21 L 1 21 L 0 21 L 0 22 L 1 22 L 21 22 L 22 22 L 22 0 L 21 0 z " />
    <g
       id="g999"
       transform="translate(28.717514)">
      <path
         id="rect978"
         style="fill:#ffffff;stroke-width:0.723775"
         transform="matrix(0.5144956,0.85749302,-0.5144956,0.85749302,0,0)"
         d="M -15.857778,22.854919 H -5.7507954 V 24.40984 H -15.857778 Z" />
      <path
         id="rect995"
         style="fill:#ffffff;stroke-width:0.723775"
         transform="matrix(-0.5144956,0.85749302,0.5144956,0.85749302,0,0)"
         d="m 18.57889,-11.581746 h 10.106982 v 1.55492 H 18.57889 Z" />
    </g>
  </g>
</svg>
