<?xml version="1.0" encoding="UTF-8" standalone="no"?>
<svg
   xmlns:dc="http://purl.org/dc/elements/1.1/"
   xmlns:cc="http://creativecommons.org/ns#"
   xmlns:rdf="http://www.w3.org/1999/02/22-rdf-syntax-ns#"
   xmlns:svg="http://www.w3.org/2000/svg"
   xmlns="http://www.w3.org/2000/svg"
   xmlns:sodipodi="http://sodipodi.sourceforge.net/DTD/sodipodi-0.dtd"
   xmlns:inkscape="http://www.inkscape.org/namespaces/inkscape"
   inkscape:version="1.0 (4035a4fb49, 2020-05-01)"
   sodipodi:docname="keyboard.svg"
   id="svg10"
   version="1.1"
   enable-background="new"
   height="22"
   width="22">
  <metadata
     id="metadata14">
    <rdf:RDF>
      <cc:Work
         rdf:about="">
        <dc:format>image/svg+xml</dc:format>
        <dc:type
           rdf:resource="http://purl.org/dc/dcmitype/StillImage" />
        <dc:title></dc:title>
      </cc:Work>
    </rdf:RDF>
  </metadata>
  <sodipodi:namedview
     inkscape:current-layer="svg10"
     inkscape:window-maximized="1"
     inkscape:window-y="32"
     inkscape:window-x="0"
     inkscape:cy="8.2999227"
     inkscape:cx="18.788536"
     inkscape:zoom="12.840416"
     showgrid="false"
     id="namedview12"
     inkscape:window-height="974"
     inkscape:window-width="1920"
     inkscape:pageshadow="2"
     inkscape:pageopacity="0"
     guidetolerance="10"
     gridtolerance="10"
     objecttolerance="10"
     borderopacity="1"
     bordercolor="#666666"
     pagecolor="#329632" />
  <defs
     id="defs3">
    <style
       type="text/css"
       id="current-color-scheme">.ColorScheme-Text { color:#dedede; } .ColorScheme-Highlight { color:#5294e2; } .ColorScheme-ButtonBackground { color:#dedede; }</style>
  </defs>
  <g
     transform="translate(-50.005077,-0.00353452)"
     id="keyboard-layout">
    <rect
       y="0.00353452"
       x="50.005077"
       height="22"
       width="22"
       id="rect4147"
       style="fill:none;fill-rule:evenodd;stroke:none;stroke-width:1px;stroke-linecap:butt;stroke-linejoin:miter;stroke-opacity:1" />
    <path
       id="rect923"
       style="opacity:1;fill:#ebebeb;stroke-width:2"
       d="m 53,6 c -0.554,0 -1,0.446 -1,1 v 9 c 0,0.554 0.446,1 1,1 h 16 c 0.554,0 1,-0.446 1,-1 V 7 C 70,6.446 69.554,6 69,6 Z m 1,2 h 2 v 1 h -2 z m 3,0 h 2 v 1 h -2 z m 3,0 h 2 v 1 h -2 z m 3,0 h 2 v 1 h -2 z m 3,0 h 2 v 1 h -2 z m -12,2 h 2 v 1 h -2 z m 3,0 h 2 v 1 h -2 z m 3,0 h 2 v 1 h -2 z m 3,0 h 2 v 1 h -2 z m 3,0 h 2 v 1 h -2 z m -12,2 h 2 v 1 h -2 z m 3,0 h 2 v 1 h -2 z m 3,0 h 2 v 1 h -2 z m 3,0 h 2 v 1 h -2 z m 3,0 h 2 v 1 h -2 z m -12,2 h 2 v 1 h -2 z m 3,0 h 8 v 1 h -8 z m 9,0 h 2 v 1 h -2 z" />
  </g>
</svg>
