<?xml version="1.0" encoding="UTF-8" standalone="no"?>
<svg
   xmlns:dc="http://purl.org/dc/elements/1.1/"
   xmlns:cc="http://creativecommons.org/ns#"
   xmlns:rdf="http://www.w3.org/1999/02/22-rdf-syntax-ns#"
   xmlns:svg="http://www.w3.org/2000/svg"
   xmlns="http://www.w3.org/2000/svg"
   xmlns:sodipodi="http://sodipodi.sourceforge.net/DTD/sodipodi-0.dtd"
   xmlns:inkscape="http://www.inkscape.org/namespaces/inkscape"
   inkscape:version="1.0 (4035a4fb49, 2020-05-01)"
   sodipodi:docname="media.svg"
   id="svg67"
   viewBox="0 0 22 22"
   version="1.1"
   height="22"
   width="22">
  <metadata
     id="metadata71">
    <rdf:RDF>
      <cc:Work
         rdf:about="">
        <dc:format>image/svg+xml</dc:format>
        <dc:type
           rdf:resource="http://purl.org/dc/dcmitype/StillImage" />
        <dc:title />
      </cc:Work>
    </rdf:RDF>
  </metadata>
  <sodipodi:namedview
     inkscape:document-rotation="0"
     inkscape:current-layer="svg67"
     inkscape:window-maximized="1"
     inkscape:window-y="0"
     inkscape:window-x="0"
     inkscape:cy="35.152428"
     inkscape:cx="34.669357"
     inkscape:zoom="7.5853273"
     showgrid="true"
     id="namedview69"
     inkscape:window-height="1006"
     inkscape:window-width="1920"
     inkscape:pageshadow="2"
     inkscape:pageopacity="0"
     guidetolerance="10"
     gridtolerance="10"
     objecttolerance="10"
     borderopacity="1"
     bordercolor="#666666"
     pagecolor="#c8c8c8">
    <inkscape:grid
       id="grid878"
       type="xygrid" />
  </sodipodi:namedview>
  <defs
     id="defs3">
    <style
       type="text/css"
       id="current-color-scheme">.ColorScheme-Text { color:#dedede; } .ColorScheme-Highlight { color:#5294e2; } .ColorScheme-ButtonBackground { color:#dedede; }</style>
  </defs>
  <g
     id="g65"
     fill="currentColor">
    <g
       transform="translate(22 -1030.4)"
       id="media-record">
      <rect
         id="rect5"
         opacity=".001"
         height="22"
         width="22"
         y="1030.4" />
      <path
         style="fill:#ff3232;fill-opacity:1"
         id="path7"
         fill="#f96060"
         enable-background="new"
         d="m11 1035.4c-3.311 0-6 2.6888-6 6 0 3.311 2.689 6 6 6s6-2.689 6-6c0-3.3112-2.689-6-6-6z"
         class="ColorScheme-Highlight" />
    </g>
    <g
       transform="translate(44 -1030.4)"
       id="media-playback-stop">
      <rect
         id="rect10"
         opacity=".001"
         height="22"
         width="22"
         y="1030.4" />
      <path
         style="fill:#eaeaea;fill-opacity:1"
         id="path12"
         fill="#dedede"
         enable-background="new"
         d="m5 1035.4v12h12v-12z"
         class="ColorScheme-Text" />
    </g>
    <g
       transform="translate(66 -1030.4)"
       id="media-skip-forward">
      <rect
         id="rect15"
         opacity=".001"
         height="22"
         width="22"
         y="1030.4" />
      <path
         style="fill:#eaeaea;fill-opacity:1"
         id="path17"
         fill="#dedede"
         enable-background="new"
         d="m19 1037.4v8h-2v-8h2zm-2 4-7 4v-8l7 4zm-7 0-7 4v-8l7 4z"
         class="ColorScheme-Text" />
    </g>
    <g
       transform="matrix(-1 0 0 1 110 -1030.4)"
       id="media-skip-backward">
      <rect
         id="rect20"
         opacity=".001"
         height="22"
         width="22"
         y="1030.4" />
      <path
         style="fill:#eaeaea;fill-opacity:1"
         id="path22"
         fill="#dedede"
         enable-background="new"
         d="m19 1037.4v8h-2v-8h2zm-2 4-7 4v-8l7 4zm-7 0-7 4v-8l7 4z"
         class="ColorScheme-Text" />
    </g>
    <g
       transform="translate(110 -1030.4)"
       id="media-seek-forward">
      <rect
         id="rect25"
         opacity=".001"
         height="22"
         width="22"
         y="1030.4" />
      <path
         style="fill:#eaeaea;fill-opacity:1"
         id="path27"
         fill="#dedede"
         enable-background="new"
         d="m11 1037.4 7 4-7 4v-8zm0 4-7 4v-8l7 4z"
         class="ColorScheme-Text" />
    </g>
    <g
       transform="matrix(-1 0 0 1 154 -1030.4)"
       id="media-seek-backward">
      <rect
         id="rect30"
         opacity=".001"
         height="22"
         width="22"
         y="1030.4" />
      <path
         style="fill:#eaeaea;fill-opacity:1"
         id="path32"
         fill="#dedede"
         enable-background="new"
         d="m11 1037.4 7 4-7 4v-8zm0 4-7 4v-8l7 4z"
         class="ColorScheme-Text" />
    </g>
    <g
       transform="translate(-44 -1030.4)"
       id="media-eject">
      <rect
         id="rect35"
         opacity=".001"
         height="22"
         width="22"
         y="1030.4" />
      <path
         style="fill:#eaeaea;fill-opacity:1"
         id="path37"
         fill="#dedede"
         display="block"
         color="#dedede"
         d="m11 1036.4-5 5v1h10v-1zm-5 8v2h10v-2z"
         class="ColorScheme-Text" />
    </g>
    <g
       transform="translate(-22 -1030.4)"
       id="media-playback-pause">
      <rect
         id="rect40"
         opacity=".001"
         height="22"
         width="22"
         y="1030.4" />
      <path
         style="fill:#eaeaea;fill-opacity:1"
         id="path42"
         fill="#dedede"
         enable-background="new"
         d="m5 1035.4v12h4v-12h-4zm8 0v12h4v-12h-4z"
         class="ColorScheme-Text" />
    </g>
    <g
       transform="translate(0 -1030.4)"
       id="media-playback-start">
      <rect
         id="rect45"
         opacity=".001"
         height="22"
         width="22"
         y="1030.4" />
      <path
         style="fill:#eaeaea;fill-opacity:1"
         id="path47"
         fill="#dedede"
         enable-background="new"
         d="m6 1035.4v12l11-6-9.8992-5.3996z"
         class="ColorScheme-Text" />
    </g>
    <g
       color="#eaeaea"
       transform="matrix(1.5 0 0 1.5 -4.6412 -1522.6)"
       class="ColorScheme-Text"
       id="media-playback-paused">
      <rect
         id="rect50"
         opacity=".01"
         fill-opacity=".0039216"
         fill="#ed1515"
         height="14.667"
         width="14.667"
         y="1034"
         x="3.6667" />
      <path
         style="fill:#ffffff;fill-opacity:1"
         id="path52"
         fill="#dedede"
         color="#eaeaea"
         d="m11.667 1039.4h1.3334v4.0002h-1.3334zm-2.6668 0h1.3334v4.0002h-1.3334zm2.0001-3.3334c-2.9548 0-5.3335 2.3787-5.3335 5.3335s2.3788 5.3335 5.3335 5.3335c2.9548 0 5.3335-2.3787 5.3335-5.3335s-2.3788-5.3335-5.3335-5.3335z"
         class="ColorScheme-Text" />
    </g>
    <g
       color="#eaeaea"
       transform="matrix(1.5 0 0 1.5 19.358 -1522.6)"
       class="ColorScheme-Text"
       id="media-playback-playing">
      <rect
         id="rect55"
         opacity=".01"
         fill-opacity=".0039216"
         fill="#ed1515"
         height="14.667"
         width="14.667"
         y="1034"
         x="3.667" />
      <path
         style="fill:#ffffff;fill-opacity:1"
         id="path57"
         fill="#dedede"
         color="#eaeaea"
         d="m35.857 31.402c-4.4324 0-8 3.5676-8 8s3.5676 8 8 8 8.002-3.5676 8.002-8-3.5696-8-8.002-8zm-2 5 4 3-4 3v-6z"
         transform="matrix(.66668 0 0 .66668 -12.906 1015.1)" />
    </g>
    <g
       color="#eaeaea"
       transform="matrix(1.5 0 0 1.5 43.358 -1522.6)"
       class="ColorScheme-Text"
       id="media-playback-stopped">
      <rect
         id="rect60"
         opacity=".01"
         fill-opacity=".0039216"
         fill="#ed1515"
         height="14.667"
         width="14.667"
         y="1034"
         x="3.6673" />
      <path
         style="fill:#ffffff;fill-opacity:1"
         id="path62"
         fill="#dedede"
         color="#eaeaea"
         d="m8.9999 1039.4h4.0002v4.0002h-4.0002zm2.0001-3.3334c-2.9548 0-5.3335 2.3787-5.3335 5.3335s2.3788 5.3335 5.3335 5.3335c2.9548 0 5.3335-2.3787 5.3335-5.3335s-2.3788-5.3335-5.3335-5.3335z"
         class="ColorScheme-Text" />
    </g>
  </g>
</svg>
