<?xml version="1.0" encoding="UTF-8" standalone="no"?>
<svg
   xmlns:dc="http://purl.org/dc/elements/1.1/"
   xmlns:cc="http://creativecommons.org/ns#"
   xmlns:rdf="http://www.w3.org/1999/02/22-rdf-syntax-ns#"
   xmlns:svg="http://www.w3.org/2000/svg"
   xmlns="http://www.w3.org/2000/svg"
   xmlns:sodipodi="http://sodipodi.sourceforge.net/DTD/sodipodi-0.dtd"
   xmlns:inkscape="http://www.inkscape.org/namespaces/inkscape"
   width="200"
   height="200"
   version="1.0"
   id="svg69"
   sodipodi:docname="listitem.svg"
   inkscape:version="1.0 (4035a4fb49, 2020-05-01)">
  <metadata
     id="metadata73">
    <rdf:RDF>
      <cc:Work
         rdf:about="">
        <dc:format>image/svg+xml</dc:format>
        <dc:type
           rdf:resource="http://purl.org/dc/dcmitype/StillImage" />
        <dc:title />
      </cc:Work>
    </rdf:RDF>
  </metadata>
  <sodipodi:namedview
     pagecolor="#329632"
     bordercolor="#666666"
     borderopacity="1"
     objecttolerance="10"
     gridtolerance="10"
     guidetolerance="10"
     inkscape:pageopacity="0"
     inkscape:pageshadow="2"
     inkscape:window-width="1920"
     inkscape:window-height="1006"
     id="namedview71"
     showgrid="true"
     units="px"
     inkscape:zoom="45.254834"
     inkscape:cx="47.226295"
     inkscape:cy="72.300435"
     inkscape:window-x="0"
     inkscape:window-y="0"
     inkscape:window-maximized="1"
     inkscape:current-layer="svg69"
     inkscape:snap-bbox="true"
     inkscape:bbox-nodes="true"
     inkscape:document-rotation="0">
    <inkscape:grid
       type="xygrid"
       id="grid903" />
  </sodipodi:namedview>
  <defs
     id="defs3">
    <style
       id="current-color-scheme"
       type="text/css">.ColorScheme-Text {
        color:#31363b;
      }
      .ColorScheme-Background{
        color:#eff0f1;
      }
      .ColorScheme-ViewText {
        color:#31363b;
      }
      .ColorScheme-ViewBackground{
        color:#fcfcfc;
      }
      .ColorScheme-ViewHover {
        color:#3daee9;
      }
      .ColorScheme-ViewFocus{
        color:#3daee9;
      }
      .ColorScheme-ButtonText {
        color:#31363b;
      }
      .ColorScheme-ButtonBackground{
        color:#eff0f1;
      }
      .ColorScheme-ButtonHover {
        color:#3daee9;
      }
      .ColorScheme-ButtonFocus{
        color:#3daee9;
      }</style>
  </defs>
  <rect
     style="fill:#4e9a06;stroke-width:0.97329223"
     ry="2"
     rx="0"
     height="2"
     width="2"
     y="48"
     x="10"
     id="hint-tile-center" />
  <rect
     style="fill:#4e9a06"
     height="6"
     width="2"
     y="59"
     x="45"
     id="pressed-hint-top-margin" />
  <rect
     style="fill:#4e9a06"
     height="6"
     width="2"
     y="80"
     x="45"
     id="pressed-hint-bottom-margin" />
  <rect
     style="fill:#4e9a06"
     height="2"
     width="4"
     y="73"
     x="34"
     id="pressed-hint-left-margin" />
  <rect
     style="fill:#4e9a06"
     height="2"
     width="4"
     y="73"
     x="53"
     id="pressed-hint-right-margin" />
  <rect
     style="fill:#4e9a06"
     height="2"
     width="4"
     y="115"
     x="37"
     id="normal-hint-left-margin" />
  <rect
     style="fill:#4e9a06"
     height="6"
     width="2"
     y="101"
     x="48"
     id="normal-hint-top-margin" />
  <rect
     style="fill:#4e9a06"
     height="6"
     width="2"
     y="124"
     x="49"
     id="normal-hint-bottom-margin" />
  <rect
     style="fill:#4e9a06"
     height="2"
     width="4"
     y="115"
     x="58"
     id="normal-hint-right-margin" />
  <g
     id="separator"
     transform="translate(31,53)"
     style="opacity:0;fill:#000000">
    <rect
       class="ColorScheme-ViewBackground"
       transform="scale(1,-1)"
       x="63"
       y="-49"
       width="40"
       height="1"
       id="rect16"
       style="color:#fcfcfc;opacity:0.2;fill:#000000" />
    <rect
       class="ColorScheme-ViewText"
       transform="scale(1,-1)"
       x="63"
       y="-49"
       width="40"
       height="1"
       id="rect18"
       style="color:#31363b;opacity:0;fill:#000000" />
  </g>
  <g
     id="g30"
     style="fill:currentColor"
     transform="translate(20,57)">
    <path
       id="normal-center"
       class="ColorScheme-ViewBackground"
       d="M 24,53 V 64 H 35 V 53 Z"
       inkscape:connector-curvature="0"
       style="color:#fcfcfc;opacity:0.01000001" />
    <path
       id="normal-right"
       class="ColorScheme-ViewBackground"
       d="m 35,53 v 11 h 2 c 6.68e-4,-0.01835 0,-0.03439 0,-0.05288 v -10.894 c 0,-0.0185 6.68e-4,-0.03453 0,-0.05288 h -2 z"
       inkscape:connector-curvature="0"
       style="color:#fcfcfc;opacity:0.01000001" />
    <path
       id="normal-top"
       class="ColorScheme-ViewBackground"
       d="m 24,51 v 2 h 11 v -2 c -0.0041,-6.7e-4 0.0042,0 10e-7,0 h -10.988 c -0.004,0 -0.008,-6.7e-4 -0.0119,0 z"
       inkscape:connector-curvature="0"
       style="color:#fcfcfc;opacity:0.01000001" />
    <path
       id="normal-left"
       class="ColorScheme-ViewBackground"
       d="m 22,53 c -6.7e-4,0.01835 0,0.03439 0,0.05288 v 10.894 c 0,0.0185 -6.7e-4,0.03453 0,0.05288 h 2 v -11 h -2 z"
       inkscape:connector-curvature="0"
       style="color:#fcfcfc;opacity:0.01000001" />
    <path
       id="normal-bottom"
       class="ColorScheme-ViewBackground"
       d="m 24,64 v 2 h 11 v -1.9997 z"
       inkscape:connector-curvature="0"
       style="color:#fcfcfc;opacity:0.01000001" />
    <path
       id="normal-topleft"
       class="ColorScheme-ViewBackground"
       d="m 22,51 v 2 h 1.9998 v -2 c -7.46e-4,-6.7e-4 7.63e-4,0 0,0 H 22.0022 C 22.001472,51 22.0007,50.99933 22,51 Z"
       inkscape:connector-curvature="0"
       style="color:#fcfcfc;opacity:0.01000001" />
    <path
       id="normal-topright"
       class="ColorScheme-ViewBackground"
       d="m 35,51.001 v 1.9997 h 1.9998 V 51.001 c -7.46e-4,-6.7e-4 7.63e-4,0 0,0 h -1.9976 c -7.28e-4,0 -0.0015,-6.7e-4 -0.0022,0 z"
       inkscape:connector-curvature="0"
       style="color:#fcfcfc;opacity:0.01000001" />
    <path
       id="normal-bottomright"
       class="ColorScheme-ViewBackground"
       d="m 35,64 v 1.9997 h 1.9998 V 64 c -7.46e-4,-6.7e-4 7.63e-4,0 0,0 H 35.0022 C 35.001472,64 35.0007,63.99933 35,64 Z"
       inkscape:connector-curvature="0"
       style="color:#fcfcfc;opacity:0.01000001" />
    <path
       id="normal-bottomleft"
       class="ColorScheme-ViewBackground"
       d="m 22,64 v 1.9997 h 1.9998 V 64 c -7.46e-4,-6.7e-4 7.63e-4,0 0,0 H 22.0022 C 22.001472,64 22.0007,63.99933 22,64 Z"
       inkscape:connector-curvature="0"
       style="color:#fcfcfc;opacity:0.01000001" />
  </g>
  <path
     style="color:#3daee9;opacity:0.2;fill:#eaeaea;fill-opacity:1"
     inkscape:connector-curvature="0"
     d="M 40,67 V 78 H 51 V 67 Z"
     class="ColorScheme-ViewFocus"
     id="pressed-center" />
  <path
     id="section-center"
     class="ColorScheme-ViewBackground"
     d="m 42,145 v 11 h 11 v -11 z"
     inkscape:connector-curvature="0"
     style="color:#fcfcfc;opacity:0" />
  <path
     id="section-right"
     class="ColorScheme-ViewBackground"
     d="m 53,145 v 11 h 2 c 6.68e-4,-0.018 0,-0.034 0,-0.053 v -10.894 c 0,-0.019 6.68e-4,-0.034 0,-0.053 z"
     inkscape:connector-curvature="0"
     style="color:#fcfcfc;opacity:0" />
  <path
     id="section-top"
     class="ColorScheme-ViewBackground"
     d="m 42,143 v 2 h 11 v -2 c -0.0041,-7e-4 0.0042,0 10e-7,0 h -10.988 c -0.004,0 -0.008,-7e-4 -0.0119,0 z"
     inkscape:connector-curvature="0"
     style="color:#fcfcfc;opacity:0" />
  <path
     id="section-left"
     class="ColorScheme-ViewBackground"
     d="m 40,145 c -6.7e-4,0.018 0,0.034 0,0.053 v 10.894 c 0,0.019 -6.7e-4,0.034 0,0.053 h 2 v -11 z"
     inkscape:connector-curvature="0"
     style="color:#fcfcfc;opacity:0" />
  <path
     id="section-bottom"
     class="ColorScheme-ViewBackground"
     d="m 42,156 v 2 h 11 v -1.9997 z"
     inkscape:connector-curvature="0"
     style="color:#fcfcfc;opacity:0" />
  <path
     id="section-topleft"
     class="ColorScheme-ViewBackground"
     d="m 40,143 v 2 h 1.9998 v -2 c -7.46e-4,-7e-4 7.63e-4,0 0,0 h -1.9976 c -7.28e-4,0 -0.0015,-7e-4 -0.0022,0 z"
     inkscape:connector-curvature="0"
     style="color:#fcfcfc;opacity:0" />
  <path
     id="section-topright"
     class="ColorScheme-ViewBackground"
     d="m 53,143 v 1.9997 h 1.9998 V 143 c -7.46e-4,-7e-4 7.63e-4,0 0,0 h -1.9976 c -7.28e-4,0 -0.0015,-7e-4 -0.0022,0 z"
     inkscape:connector-curvature="0"
     style="color:#fcfcfc;opacity:0" />
  <path
     id="section-bottomright"
     class="ColorScheme-ViewBackground"
     d="m 53,156 v 1.9997 h 1.9998 V 156 c -7.46e-4,-7e-4 7.63e-4,0 0,0 h -1.9976 c -7.28e-4,0 -0.0015,-7e-4 -0.0022,0 z"
     inkscape:connector-curvature="0"
     style="color:#fcfcfc;opacity:0" />
  <path
     id="section-bottomleft"
     class="ColorScheme-ViewBackground"
     d="m 40,156 v 1.9997 h 1.9998 V 156 c -7.46e-4,-7e-4 7.63e-4,0 0,0 h -1.9976 c -7.28e-4,0 -0.0015,-7e-4 -0.0022,0 z"
     inkscape:connector-curvature="0"
     style="color:#fcfcfc;opacity:0" />
  <rect
     style="fill:#4e9a06"
     height="6"
     width="2"
     y="138"
     x="48"
     id="section-hint-top-margin" />
  <rect
     style="fill:#4e9a06"
     height="2"
     width="4"
     y="152"
     x="30"
     id="section-hint-left-margin" />
  <rect
     style="fill:#4e9a06"
     height="2"
     width="4"
     y="152"
     x="54.965"
     id="section-hint-right-margin" />
  <rect
     style="fill:#4e9a06"
     height="6"
     width="2"
     y="157"
     x="49"
     id="section-hint-bottom-margin" />
  <path
     style="color:#3daee9;opacity:0.05;fill:#ffffff;stroke-width:0.99999994"
     inkscape:connector-curvature="0"
     d="M 75,67.00021 V 78.00019 H 86.000001 V 67.00021 Z"
     class="ColorScheme-ViewFocus"
     id="hover-center" />
  <path
     style="color:#3daee9;opacity:0.05;fill:#ffffff;stroke-width:0.99999994"
     inkscape:connector-curvature="0"
     d="m 86.000001,67.00021 v 10.99998 h 1.999997 c 6.69e-4,-0.0189 0,-0.034 0,-0.0529 v -10.894 c 0,-0.0189 6.69e-4,-0.034 0,-0.0529 h -1.999997 z"
     class="ColorScheme-ViewFocus"
     id="hover-right" />
  <path
     style="color:#3daee9;opacity:0.05;fill:#ffffff;stroke-width:0.99993271"
     inkscape:connector-curvature="0"
     d="m 75,65.0002 v 2.00001 H 85.998522 V 65.0002 c -0.0042,-6.8e-4 0.0045,0 2.99e-4,0 H 75.0123 c -0.0042,0 -0.0079,-6.8e-4 -0.01172,0 z"
     class="ColorScheme-ViewFocus"
     id="hover-top" />
  <path
     style="color:#3daee9;opacity:0.05;fill:#ffffff;stroke-width:0.99999994"
     inkscape:connector-curvature="0"
     d="m 72.999998,67.00021 c -6.69e-4,0.0189 0,0.034 0,0.0529 V 77.9471 c 0,0.0189 -6.69e-4,0.034 0,0.0529 H 75 V 67 h -2.000002 z"
     class="ColorScheme-ViewFocus"
     id="hover-left" />
  <path
     style="color:#3daee9;opacity:0.05;fill:#ffffff;stroke-width:0.99999994"
     inkscape:connector-curvature="0"
     d="M 75,78.00019 V 80.0002 H 86.000001 V 78.00019 Z"
     class="ColorScheme-ViewFocus"
     id="hover-bottom" />
  <path
     style="color:#3daee9;opacity:0.05;fill:#ffffff;stroke-width:0.99999994"
     d="M 75 65 C 73.892 65 73 65.892 73 67 L 75 67 L 75 65 z "
     id="hover-topleft" />
  <path
     style="color:#3daee9;opacity:0.05;fill:#ffffff;stroke-width:0.99999994"
     d="M 86 65 L 86 67 L 88 67 C 88 65.892 87.108 65 86 65 z "
     id="hover-topright" />
  <path
     style="color:#3daee9;opacity:0.05;fill:#ffffff;stroke-width:0.99999994"
     d="M 73 78 C 73 79.108 73.892 80 75 80 L 75 78 L 73 78 z "
     id="hover-bottomleft" />
  <path
     style="color:#3daee9;opacity:0.05;fill:#ffffff;stroke-width:0.99999994"
     d="M 86 78 L 86 80 C 87.108 80 88 79.108 88 78 L 86 78 z "
     id="hover-bottomright" />
  <g
     id="pressed-right">
    <path
       id="4"
       class="ColorScheme-ViewFocus"
       d="m 51,67 v 11 h 2 c 6.68e-4,-0.0184 0,-0.0344 0,-0.0529 v -10.894 c 0,-0.0185 6.68e-4,-0.0345 0,-0.0529 h -2 z"
       inkscape:connector-curvature="0"
       style="color:#3daee9;opacity:0.2;fill:#eaeaea;fill-opacity:1" />
    <path
       d="m 51.998511,78 h 1 V 67 h -1 z"
       style="color:#000000;font-style:normal;font-variant:normal;font-weight:normal;font-stretch:normal;font-size:medium;line-height:normal;font-family:sans-serif;font-variant-ligatures:normal;font-variant-position:normal;font-variant-caps:normal;font-variant-numeric:normal;font-variant-alternates:normal;font-variant-east-asian:normal;font-feature-settings:normal;font-variation-settings:normal;text-indent:0;text-align:start;text-decoration:none;text-decoration-line:none;text-decoration-style:solid;text-decoration-color:#000000;letter-spacing:normal;word-spacing:normal;text-transform:none;writing-mode:lr-tb;direction:ltr;text-orientation:mixed;dominant-baseline:auto;baseline-shift:baseline;text-anchor:start;white-space:normal;shape-padding:0;shape-margin:0;inline-size:0;clip-rule:nonzero;display:inline;overflow:visible;visibility:visible;opacity:0.4;isolation:auto;mix-blend-mode:normal;color-interpolation:sRGB;color-interpolation-filters:linearRGB;solid-color:#000000;solid-opacity:1;vector-effect:none;fill:#ffffff;fill-opacity:1;fill-rule:nonzero;stroke:none;stroke-width:0.999723;stroke-linecap:butt;stroke-linejoin:miter;stroke-miterlimit:4;stroke-dasharray:none;stroke-dashoffset:0;stroke-opacity:1;color-rendering:auto;image-rendering:auto;shape-rendering:auto;text-rendering:auto;enable-background:accumulate;stop-color:#000000;stop-opacity:1"
       id="path905" />
  </g>
  <g
     id="pressed-bottomright">
    <path
       id="5"
       d="M 51 78 L 51 80 C 52.108 80 53 79.108 53 78 L 51 78 z "
       style="color:#3daee9;opacity:0.2;fill:#eaeaea;fill-opacity:1" />
    <path
       d="m 50.998511,79 v 1 c 1.099353,0 2,-0.900647 2,-2 h -1 c 0,0.562799 -0.437201,1 -1,1 z"
       style="color:#000000;font-style:normal;font-variant:normal;font-weight:normal;font-stretch:normal;font-size:medium;line-height:normal;font-family:sans-serif;font-variant-ligatures:normal;font-variant-position:normal;font-variant-caps:normal;font-variant-numeric:normal;font-variant-alternates:normal;font-variant-east-asian:normal;font-feature-settings:normal;font-variation-settings:normal;text-indent:0;text-align:start;text-decoration:none;text-decoration-line:none;text-decoration-style:solid;text-decoration-color:#000000;letter-spacing:normal;word-spacing:normal;text-transform:none;writing-mode:lr-tb;direction:ltr;text-orientation:mixed;dominant-baseline:auto;baseline-shift:baseline;text-anchor:start;white-space:normal;shape-padding:0;shape-margin:0;inline-size:0;clip-rule:nonzero;display:inline;overflow:visible;visibility:visible;opacity:0.4;isolation:auto;mix-blend-mode:normal;color-interpolation:sRGB;color-interpolation-filters:linearRGB;solid-color:#000000;solid-opacity:1;vector-effect:none;fill:#ffffff;fill-opacity:1;fill-rule:nonzero;stroke:none;stroke-width:0.999723;stroke-linecap:butt;stroke-linejoin:miter;stroke-miterlimit:4;stroke-dasharray:none;stroke-dashoffset:0;stroke-opacity:1;color-rendering:auto;image-rendering:auto;shape-rendering:auto;text-rendering:auto;enable-background:accumulate;stop-color:#000000;stop-opacity:1"
       id="path920" />
  </g>
  <g
     id="pressed-bottom">
    <path
       id="6"
       class="ColorScheme-ViewFocus"
       d="m 40,78 v 2 h 11 v -2 z"
       inkscape:connector-curvature="0"
       style="color:#3daee9;opacity:0.2;fill:#eaeaea;fill-opacity:1" />
    <path
       d="m 39.998511,79 v 1 h 11 v -1 z"
       style="color:#000000;font-style:normal;font-variant:normal;font-weight:normal;font-stretch:normal;font-size:medium;line-height:normal;font-family:sans-serif;font-variant-ligatures:normal;font-variant-position:normal;font-variant-caps:normal;font-variant-numeric:normal;font-variant-alternates:normal;font-variant-east-asian:normal;font-feature-settings:normal;font-variation-settings:normal;text-indent:0;text-align:start;text-decoration:none;text-decoration-line:none;text-decoration-style:solid;text-decoration-color:#000000;letter-spacing:normal;word-spacing:normal;text-transform:none;writing-mode:lr-tb;direction:ltr;text-orientation:mixed;dominant-baseline:auto;baseline-shift:baseline;text-anchor:start;white-space:normal;shape-padding:0;shape-margin:0;inline-size:0;clip-rule:nonzero;display:inline;overflow:visible;visibility:visible;opacity:0.4;isolation:auto;mix-blend-mode:normal;color-interpolation:sRGB;color-interpolation-filters:linearRGB;solid-color:#000000;solid-opacity:1;vector-effect:none;fill:#ffffff;fill-opacity:1;fill-rule:nonzero;stroke:none;stroke-width:0.999723;stroke-linecap:butt;stroke-linejoin:miter;stroke-miterlimit:4;stroke-dasharray:none;stroke-dashoffset:0;stroke-opacity:1;color-rendering:auto;image-rendering:auto;shape-rendering:auto;text-rendering:auto;enable-background:accumulate;stop-color:#000000;stop-opacity:1"
       id="path924" />
  </g>
  <g
     id="pressed-bottomleft">
    <path
       id="7"
       d="M 38 78 C 38 79.108 38.892 80 40 80 L 40 78 L 38 78 z "
       style="color:#3daee9;opacity:0.2;fill:#eaeaea;fill-opacity:1" />
    <path
       d="m 38.998511,78 h -1 c 0,1.099353 0.900647,2 2,2 v -1 c -0.562799,0 -1,-0.437201 -1,-1 z"
       style="color:#000000;font-style:normal;font-variant:normal;font-weight:normal;font-stretch:normal;font-size:medium;line-height:normal;font-family:sans-serif;font-variant-ligatures:normal;font-variant-position:normal;font-variant-caps:normal;font-variant-numeric:normal;font-variant-alternates:normal;font-variant-east-asian:normal;font-feature-settings:normal;font-variation-settings:normal;text-indent:0;text-align:start;text-decoration:none;text-decoration-line:none;text-decoration-style:solid;text-decoration-color:#000000;letter-spacing:normal;word-spacing:normal;text-transform:none;writing-mode:lr-tb;direction:ltr;text-orientation:mixed;dominant-baseline:auto;baseline-shift:baseline;text-anchor:start;white-space:normal;shape-padding:0;shape-margin:0;inline-size:0;clip-rule:nonzero;display:inline;overflow:visible;visibility:visible;opacity:0.4;isolation:auto;mix-blend-mode:normal;color-interpolation:sRGB;color-interpolation-filters:linearRGB;solid-color:#000000;solid-opacity:1;vector-effect:none;fill:#ffffff;fill-opacity:1;fill-rule:nonzero;stroke:none;stroke-width:0.999723;stroke-linecap:butt;stroke-linejoin:miter;stroke-miterlimit:4;stroke-dasharray:none;stroke-dashoffset:0;stroke-opacity:1;color-rendering:auto;image-rendering:auto;shape-rendering:auto;text-rendering:auto;enable-background:accumulate;stop-color:#000000;stop-opacity:1"
       id="path928" />
  </g>
  <g
     id="pressed-left">
    <path
       id="8"
       class="ColorScheme-ViewFocus"
       d="m 38,67 c -6.7e-4,0.0184 0,0.0344 0,0.0529 v 10.894 c 0,0.0185 -6.7e-4,0.0345 0,0.0529 h 2 v -11 h -2 z"
       inkscape:connector-curvature="0"
       style="color:#3daee9;opacity:0.2;fill:#eaeaea;fill-opacity:1" />
    <path
       d="m 37.998511,67 v 11 h 1 V 67 Z"
       style="color:#000000;font-style:normal;font-variant:normal;font-weight:normal;font-stretch:normal;font-size:medium;line-height:normal;font-family:sans-serif;font-variant-ligatures:normal;font-variant-position:normal;font-variant-caps:normal;font-variant-numeric:normal;font-variant-alternates:normal;font-variant-east-asian:normal;font-feature-settings:normal;font-variation-settings:normal;text-indent:0;text-align:start;text-decoration:none;text-decoration-line:none;text-decoration-style:solid;text-decoration-color:#000000;letter-spacing:normal;word-spacing:normal;text-transform:none;writing-mode:lr-tb;direction:ltr;text-orientation:mixed;dominant-baseline:auto;baseline-shift:baseline;text-anchor:start;white-space:normal;shape-padding:0;shape-margin:0;inline-size:0;clip-rule:nonzero;display:inline;overflow:visible;visibility:visible;opacity:0.4;isolation:auto;mix-blend-mode:normal;color-interpolation:sRGB;color-interpolation-filters:linearRGB;solid-color:#000000;solid-opacity:1;vector-effect:none;fill:#ffffff;fill-opacity:1;fill-rule:nonzero;stroke:none;stroke-width:0.999723;stroke-linecap:butt;stroke-linejoin:miter;stroke-miterlimit:4;stroke-dasharray:none;stroke-dashoffset:0;stroke-opacity:1;color-rendering:auto;image-rendering:auto;shape-rendering:auto;text-rendering:auto;enable-background:accumulate;stop-color:#000000;stop-opacity:1"
       id="path932" />
  </g>
  <g
     id="pressed-topright">
    <path
       id="3"
       d="M 51 65 L 51 67 L 53 67 C 53 65.892 52.108 65 51 65 z "
       style="color:#3daee9;opacity:0.2;fill:#eaeaea;fill-opacity:1" />
    <path
       d="m 50.998511,65 v 1 c 0.562799,0 1,0.437201 1,1 h 1 c 0,-1.099353 -0.900647,-2 -2,-2 z"
       style="color:#000000;font-style:normal;font-variant:normal;font-weight:normal;font-stretch:normal;font-size:medium;line-height:normal;font-family:sans-serif;font-variant-ligatures:normal;font-variant-position:normal;font-variant-caps:normal;font-variant-numeric:normal;font-variant-alternates:normal;font-variant-east-asian:normal;font-feature-settings:normal;font-variation-settings:normal;text-indent:0;text-align:start;text-decoration:none;text-decoration-line:none;text-decoration-style:solid;text-decoration-color:#000000;letter-spacing:normal;word-spacing:normal;text-transform:none;writing-mode:lr-tb;direction:ltr;text-orientation:mixed;dominant-baseline:auto;baseline-shift:baseline;text-anchor:start;white-space:normal;shape-padding:0;shape-margin:0;inline-size:0;clip-rule:nonzero;display:inline;overflow:visible;visibility:visible;opacity:0.4;isolation:auto;mix-blend-mode:normal;color-interpolation:sRGB;color-interpolation-filters:linearRGB;solid-color:#000000;solid-opacity:1;vector-effect:none;fill:#ffffff;fill-opacity:1;fill-rule:nonzero;stroke:none;stroke-width:0.999723;stroke-linecap:butt;stroke-linejoin:miter;stroke-miterlimit:4;stroke-dasharray:none;stroke-dashoffset:0;stroke-opacity:1;color-rendering:auto;image-rendering:auto;shape-rendering:auto;text-rendering:auto;enable-background:accumulate;stop-color:#000000;stop-opacity:1"
       id="path916" />
  </g>
  <g
     id="pressed-top">
    <path
       id="2"
       class="ColorScheme-ViewFocus"
       d="m 40,65 v 2 h 10.998511 v -2 c -0.0041,-6.7e-4 0.0045,0 3.01e-4,0 H 40.012299 c -0.004,0 -0.008,-6.7e-4 -0.0119,0 z"
       inkscape:connector-curvature="0"
       style="color:#3daee9;opacity:0.2;fill:#eaeaea;stroke-width:0.99993229;fill-opacity:1" />
    <path
       d="m 39.998511,65 v 1 h 11 v -1 z"
       style="color:#000000;font-style:normal;font-variant:normal;font-weight:normal;font-stretch:normal;font-size:medium;line-height:normal;font-family:sans-serif;font-variant-ligatures:normal;font-variant-position:normal;font-variant-caps:normal;font-variant-numeric:normal;font-variant-alternates:normal;font-variant-east-asian:normal;font-feature-settings:normal;font-variation-settings:normal;text-indent:0;text-align:start;text-decoration:none;text-decoration-line:none;text-decoration-style:solid;text-decoration-color:#000000;letter-spacing:normal;word-spacing:normal;text-transform:none;writing-mode:lr-tb;direction:ltr;text-orientation:mixed;dominant-baseline:auto;baseline-shift:baseline;text-anchor:start;white-space:normal;shape-padding:0;shape-margin:0;inline-size:0;clip-rule:nonzero;display:inline;overflow:visible;visibility:visible;opacity:0.4;isolation:auto;mix-blend-mode:normal;color-interpolation:sRGB;color-interpolation-filters:linearRGB;solid-color:#000000;solid-opacity:1;vector-effect:none;fill:#ffffff;fill-opacity:1;fill-rule:nonzero;stroke:none;stroke-width:0.999723;stroke-linecap:butt;stroke-linejoin:miter;stroke-miterlimit:4;stroke-dasharray:none;stroke-dashoffset:0;stroke-opacity:1;color-rendering:auto;image-rendering:auto;shape-rendering:auto;text-rendering:auto;enable-background:accumulate;stop-color:#000000;stop-opacity:1"
       id="path912" />
  </g>
  <g
     id="pressed-topleft">
    <path
       id="1"
       d="M 40 65 C 38.892 65 38 65.892 38 67 L 40 67 L 40 65 z "
       style="color:#3daee9;opacity:0.2;fill:#eaeaea;fill-opacity:1" />
    <path
       d="m 37.998511,67 h 1 c 0,-0.562799 0.437201,-1 1,-1 v -1 c -1.099353,0 -2,0.900647 -2,2 z"
       style="color:#000000;font-style:normal;font-variant:normal;font-weight:normal;font-stretch:normal;font-size:medium;line-height:normal;font-family:sans-serif;font-variant-ligatures:normal;font-variant-position:normal;font-variant-caps:normal;font-variant-numeric:normal;font-variant-alternates:normal;font-variant-east-asian:normal;font-feature-settings:normal;font-variation-settings:normal;text-indent:0;text-align:start;text-decoration:none;text-decoration-line:none;text-decoration-style:solid;text-decoration-color:#000000;letter-spacing:normal;word-spacing:normal;text-transform:none;writing-mode:lr-tb;direction:ltr;text-orientation:mixed;dominant-baseline:auto;baseline-shift:baseline;text-anchor:start;white-space:normal;shape-padding:0;shape-margin:0;inline-size:0;clip-rule:nonzero;display:inline;overflow:visible;visibility:visible;opacity:0.4;isolation:auto;mix-blend-mode:normal;color-interpolation:sRGB;color-interpolation-filters:linearRGB;solid-color:#000000;solid-opacity:1;vector-effect:none;fill:#ffffff;fill-opacity:1;fill-rule:nonzero;stroke:none;stroke-width:0.999723;stroke-linecap:butt;stroke-linejoin:miter;stroke-miterlimit:4;stroke-dasharray:none;stroke-dashoffset:0;stroke-opacity:1;color-rendering:auto;image-rendering:auto;shape-rendering:auto;text-rendering:auto;enable-background:accumulate;stop-color:#000000;stop-opacity:1"
       id="path908" />
  </g>
</svg>
